<svg width="40" height="40" viewBox="0 0 40 40" fill="none" xmlns="http://www.w3.org/2000/svg">
<path fill-rule="evenodd" clip-rule="evenodd" d="M19.635 28.385C19.5189 28.5014 19.381 28.5938 19.2291 28.6568C19.0772 28.7198 18.9144 28.7522 18.75 28.7522C18.5856 28.7522 18.4228 28.7198 18.2709 28.6568C18.1191 28.5938 17.9811 28.5014 17.865 28.385L10.365 20.885C10.2486 20.7689 10.1563 20.631 10.0932 20.4791C10.0302 20.3272 9.99779 20.1644 9.99779 20C9.99779 19.8356 10.0302 19.6728 10.0932 19.5209C10.1563 19.3691 10.2486 19.2311 10.365 19.115L17.865 11.615C18.0997 11.3803 18.4181 11.2484 18.75 11.2484C19.082 11.2484 19.4003 11.3803 19.635 11.615C19.8697 11.8497 20.0016 12.1681 20.0016 12.5C20.0016 12.832 19.8697 13.1503 19.635 13.385L13.0175 20L19.635 26.615C19.7514 26.7311 19.8438 26.8691 19.9068 27.0209C19.9698 27.1728 20.0023 27.3356 20.0023 27.5C20.0023 27.6644 19.9698 27.8272 19.9068 27.9791C19.8438 28.131 19.7514 28.2689 19.635 28.385Z" fill="black"/>
<path fill-rule="evenodd" clip-rule="evenodd" d="M30 20C30 20.3315 29.8683 20.6495 29.6339 20.8839C29.3995 21.1183 29.0815 21.25 28.75 21.25L12.5 21.25C12.1685 21.25 11.8505 21.1183 11.6161 20.8839C11.3817 20.6495 11.25 20.3315 11.25 20C11.25 19.6685 11.3817 19.3505 11.6161 19.1161C11.8505 18.8817 12.1685 18.75 12.5 18.75L28.75 18.75C29.0815 18.75 29.3995 18.8817 29.6339 19.1161C29.8683 19.3505 30 19.6685 30 20Z" fill="black"/>
</svg>
