<svg width="40" height="40" viewBox="0 0 40 40" fill="none" xmlns="http://www.w3.org/2000/svg">
<path fill-rule="evenodd" clip-rule="evenodd" d="M20.365 11.615C20.4811 11.4986 20.619 11.4062 20.7709 11.3432C20.9228 11.2802 21.0856 11.2478 21.25 11.2478C21.4144 11.2478 21.5772 11.2802 21.7291 11.3432C21.8809 11.4062 22.0189 11.4986 22.135 11.615L29.635 19.115C29.7514 19.2311 29.8437 19.369 29.9068 19.5209C29.9698 19.6728 30.0022 19.8356 30.0022 20C30.0022 20.1644 29.9698 20.3272 29.9068 20.4791C29.8437 20.6309 29.7514 20.7689 29.635 20.885L22.135 28.385C21.9003 28.6197 21.5819 28.7516 21.25 28.7516C20.918 28.7516 20.5997 28.6197 20.365 28.385C20.1303 28.1503 19.9984 27.8319 19.9984 27.5C19.9984 27.168 20.1303 26.8497 20.365 26.615L26.9825 20L20.365 13.385C20.2486 13.2689 20.1562 13.1309 20.0932 12.9791C20.0302 12.8272 19.9977 12.6644 19.9977 12.5C19.9977 12.3356 20.0302 12.1728 20.0932 12.0209C20.1562 11.869 20.2486 11.7311 20.365 11.615Z" fill="black"/>
<path fill-rule="evenodd" clip-rule="evenodd" d="M10 20C10 19.6685 10.1317 19.3505 10.3661 19.1161C10.6005 18.8817 10.9185 18.75 11.25 18.75H27.5C27.8315 18.75 28.1495 18.8817 28.3839 19.1161C28.6183 19.3505 28.75 19.6685 28.75 20C28.75 20.3315 28.6183 20.6495 28.3839 20.8839C28.1495 21.1183 27.8315 21.25 27.5 21.25H11.25C10.9185 21.25 10.6005 21.1183 10.3661 20.8839C10.1317 20.6495 10 20.3315 10 20Z" fill="black"/>
</svg>
