<svg width="105" height="54" viewBox="0 0 105 54" fill="none" xmlns="http://www.w3.org/2000/svg">
<path d="M90.7468 49.4796C90.9842 49.44 91.2086 49.3439 91.4011 49.1993C99.6098 43.0332 103.066 36.3772 103.26 30.1163C103.453 23.898 100.416 18.4067 96.3216 14.5571C92.2526 10.7316 86.9253 8.32818 82.2404 8.5316C79.8658 8.63471 77.6104 9.41515 75.8394 11.0806C74.68 12.1709 73.7858 13.5862 73.193 15.3158C72.4939 14.5676 71.6252 13.6776 70.6142 12.7191C67.8092 10.0597 63.8496 6.81596 59.3287 4.63581C54.8097 2.45657 49.5693 1.26688 44.3373 2.99877C39.3649 4.64472 34.7135 8.82464 30.7879 16.5468C24.6799 14.0315 19.2072 14.219 14.6702 16.1603C9.84312 18.2257 6.23725 22.2054 4.06492 26.6389C1.89846 31.0604 1.08514 36.0812 2.01716 40.3536C2.96343 44.6914 5.74473 48.3044 10.6566 49.4601C19.3508 51.5058 34.8891 52.2499 50.3873 52.1249C65.9164 51.9997 81.6322 50.9987 90.7468 49.4796Z" stroke="black" stroke-width="3" stroke-linejoin="round"/>
<path d="M44 23L61 40" stroke="black" stroke-width="5" stroke-linecap="round" stroke-linejoin="round"/>
<path d="M44 40L61 23" stroke="black" stroke-width="5" stroke-linecap="round" stroke-linejoin="round"/>
</svg>
