<svg width="72" height="37" viewBox="0 0 72 37" fill="none" xmlns="http://www.w3.org/2000/svg">
<path d="M61.703 33.7388C61.9383 33.7002 62.161 33.6059 62.3526 33.4639C67.9287 29.3325 70.3575 24.808 70.4939 20.4717C70.629 16.1781 68.5037 12.4189 65.6874 9.80732C62.8953 7.21809 59.2091 5.5582 55.912 5.69941C54.2326 5.77134 52.605 6.31806 51.3169 7.51278C50.6491 8.13224 50.1089 8.89213 49.704 9.78206C49.3431 9.41533 48.9356 9.01528 48.4869 8.5956C46.591 6.82264 43.8988 4.64424 40.8095 3.17484C37.7223 1.70638 34.0818 0.875432 30.4196 2.07114C27.0227 3.18021 23.8986 5.9366 21.2731 10.8627C17.2419 9.32998 13.5917 9.47994 10.5296 10.7722C7.17152 12.1895 4.67721 14.9131 3.1794 17.9283C1.68805 20.9305 1.11287 24.3663 1.76723 27.3249C2.43688 30.3527 4.42502 32.908 7.92307 33.7199C13.8025 35.0844 24.2519 35.5737 34.6219 35.4912C45.0224 35.4085 55.5676 34.7474 61.703 33.7388Z" fill="#333333" stroke="#333333" stroke-width="3" stroke-linejoin="round"/>
</svg>
