<svg width="48" height="48" viewBox="0 0 48 48" fill="none" xmlns="http://www.w3.org/2000/svg">
<path fill-rule="evenodd" clip-rule="evenodd" d="M24 16.562C22.0273 16.562 20.1355 17.3457 18.7406 18.7406C17.3457 20.1355 16.562 22.0273 16.562 24C16.562 25.9727 17.3457 27.8646 18.7406 29.2595C20.1355 30.6544 22.0273 31.438 24 31.438C25.9727 31.438 27.8646 30.6544 29.2595 29.2595C30.6544 27.8646 31.438 25.9727 31.438 24C31.438 22.0273 30.6544 20.1355 29.2595 18.7406C27.8646 17.3457 25.9727 16.562 24 16.562V16.562ZM19.5372 24C19.5372 25.1836 20.0074 26.3188 20.8443 27.1557C21.6813 27.9927 22.8164 28.4628 24 28.4628C25.1836 28.4628 26.3188 27.9927 27.1557 27.1557C27.9927 26.3188 28.4628 25.1836 28.4628 24C28.4628 22.8164 27.9927 21.6813 27.1557 20.8443C26.3188 20.0074 25.1836 19.5372 24 19.5372C22.8164 19.5372 21.6813 20.0074 20.8443 20.8443C20.0074 21.6813 19.5372 22.8164 19.5372 24Z" fill="white"/>
<path d="M32.9257 13.5869C32.5311 13.5869 32.1527 13.7436 31.8738 14.0226C31.5948 14.3016 31.438 14.68 31.438 15.0745C31.438 15.4691 31.5948 15.8474 31.8738 16.1264C32.1527 16.4054 32.5311 16.5621 32.9257 16.5621C33.3202 16.5621 33.6986 16.4054 33.9776 16.1264C34.2565 15.8474 34.4133 15.4691 34.4133 15.0745C34.4133 14.68 34.2565 14.3016 33.9776 14.0226C33.6986 13.7436 33.3202 13.5869 32.9257 13.5869Z" fill="white"/>
<path fill-rule="evenodd" clip-rule="evenodd" d="M13.5868 7.63647C12.0086 7.63647 10.4951 8.26339 9.37919 9.37931C8.26327 10.4952 7.63635 12.0087 7.63635 13.5869V34.4133C7.63635 35.9915 8.26327 37.505 9.37919 38.6209C10.4951 39.7368 12.0086 40.3637 13.5868 40.3637H34.4132C35.9914 40.3637 37.5049 39.7368 38.6208 38.6209C39.7367 37.505 40.3636 35.9915 40.3636 34.4133V13.5869C40.3636 12.0087 39.7367 10.4952 38.6208 9.37931C37.5049 8.26339 35.9914 7.63647 34.4132 7.63647H13.5868ZM34.4132 10.6117H13.5868C12.7977 10.6117 12.0409 10.9251 11.483 11.4831C10.925 12.0411 10.6116 12.7978 10.6116 13.5869V34.4133C10.6116 35.2024 10.925 35.9592 11.483 36.5171C12.0409 37.0751 12.7977 37.3885 13.5868 37.3885H34.4132C35.2023 37.3885 35.959 37.0751 36.517 36.5171C37.075 35.9592 37.3884 35.2024 37.3884 34.4133V13.5869C37.3884 12.7978 37.075 12.0411 36.517 11.4831C35.959 10.9251 35.2023 10.6117 34.4132 10.6117Z" fill="white"/>
</svg>
