<svg width="48" height="48" viewBox="0 0 48 48" fill="none" xmlns="http://www.w3.org/2000/svg">
<path d="M39.0545 7.63647H8.94544C8.22135 7.63647 7.63635 8.22147 7.63635 8.94557V39.0547C7.63635 39.7787 8.22135 40.3637 8.94544 40.3637H39.0545C39.7786 40.3637 40.3636 39.7787 40.3636 39.0547V8.94557C40.3636 8.22147 39.7786 7.63647 39.0545 7.63647ZM37.7454 37.7456H30.2141V27.6901H34.4686L35.1068 22.7524H30.2141V19.5983C30.2141 18.1665 30.6109 17.1928 32.6604 17.1928H35.2745V12.7747C34.8204 12.7133 33.27 12.5783 31.4618 12.5783C27.69 12.5783 25.1086 14.8815 25.1086 19.1074V22.7483H20.8459V27.686H25.1127V37.7456H10.2545V10.2547H37.7454V37.7456Z" fill="white"/>
</svg>
