<svg width="28" height="28" viewBox="0 0 28 28" fill="none" xmlns="http://www.w3.org/2000/svg">
<g id="eva:menu-arrow-fill">
<g id="Hamburger">
<path id="line-mid" d="M24.5717 12.2503H6.39174L8.06317 11.284C8.30527 11.1429 8.44129 10.9516 8.44129 10.7521C8.44129 10.5527 8.30527 10.3613 8.06317 10.2203C7.82106 10.0792 7.4927 10 7.15031 10C6.80792 10 6.47956 10.0792 6.23745 10.2203L2.38031 12.4675C2.2598 12.5372 2.16415 12.62 2.09888 12.7113C2.03361 12.8026 2 12.9005 2 12.9994C2 13.0982 2.03361 13.1962 2.09888 13.2874C2.16415 13.3787 2.2598 13.4616 2.38031 13.5312L6.23745 15.7784C6.35698 15.8486 6.49918 15.9044 6.65586 15.9424C6.81253 15.9804 6.98058 16 7.15031 16C7.32004 16 7.48809 15.9804 7.64477 15.9424C7.80144 15.9044 7.94364 15.8486 8.06317 15.7784C8.18368 15.7088 8.27933 15.6259 8.3446 15.5347C8.40987 15.4434 8.44348 15.3455 8.44348 15.2466C8.44348 15.1477 8.40987 15.0498 8.3446 14.9585C8.27933 14.8672 8.18368 14.7844 8.06317 14.7147L6.39174 13.7484H24.5717C24.8906 13.7394 25.1923 13.6615 25.4181 13.5299C25.6439 13.3984 25.7776 13.2226 25.7932 13.0368V12.9994C25.7936 12.807 25.667 12.6219 25.4396 12.4825C25.2122 12.343 24.9015 12.2599 24.5717 12.2503Z" fill="black"/>
<path id="line-bot" d="M24.5717 20.4285H3.87174C3.19717 20.4285 2.65031 20.7475 2.65031 21.141V21.216C2.65031 21.6095 3.19717 21.9285 3.87174 21.9285H24.5717C25.2463 21.9285 25.7932 21.6095 25.7932 21.216V21.141C25.7932 20.7475 25.2463 20.4285 24.5717 20.4285Z" fill="black"/>
<path id="line-top" d="M24.5717 5H3.87174C3.19717 5 2.65031 5.319 2.65031 5.7125V5.7875C2.65031 6.181 3.19717 6.5 3.87174 6.5H24.5717C25.2463 6.5 25.7932 6.181 25.7932 5.7875V5.7125C25.7932 5.319 25.2463 5 24.5717 5Z" fill="black"/>
</g>
</g>
</svg>
