<?xml version="1.0" encoding="UTF-8"?>
<!DOCTYPE svg  PUBLIC '-//W3C//DTD SVG 1.1//EN'  'http://www.w3.org/Graphics/SVG/1.1/DTD/svg11.dtd'>
<svg clip-rule="evenodd" fill-rule="evenodd" image-rendering="optimizeQuality" shape-rendering="geometricPrecision" text-rendering="geometricPrecision" viewBox="0 0 210 120" xml:space="preserve" xmlns="http://www.w3.org/2000/svg">
 <defs>
  <style type="text/css">
   <![CDATA[
    .str0 {stroke:#2B2A29;stroke-width:0.3528}
    .fil1 {fill:none}
    .fil2 {fill:#2B2A29}
    .fil0 {fill:#2B2A29;fill-rule:nonzero}
   ]]>
  </style>
 </defs>



   <polygon class="fil0" points="189.52 17.336 176.56 17.344 159.82 36.362 158.8 37.526 157.69 36.443 138.09 17.346 118.1 17.363 100.02 35.831 97.493 38.413 97.493 34.799 97.493 17.676 22.152 17.574 22.154 27.906 50.737 50.715 54.049 53.358 49.814 53.34 26.655 53.244 26.667 50.302 45.591 50.38 19.765 29.772 19.212 29.33 19.211 28.618 19.209 16.101 19.209 14.628 20.68 14.63 98.97 14.735 100.45 14.737 100.45 16.206 100.45 31.184 116.43 14.86 116.85 14.422 117.48 14.421 138.69 14.403 139.29 14.403 139.72 14.819 158.63 33.249 174.78 14.899 175.22 14.403 175.89 14.402 189.52 14.394"/>
   <polygon class="fil0" points="33.048 66.941 96.322 66.881 96.323 54.227 96.324 51.467 98.614 53.004 119.73 67.175 164.96 67.288 164.93 46.249 164.93 45.61 165.39 45.176 189.2 22.836 191.22 24.982 167.88 46.888 167.9 68.762 167.91 70.237 166.43 70.234 119.28 70.116 118.83 70.115 118.46 69.868 99.265 56.987 99.264 68.35 99.264 69.82 97.793 69.822 33.048 69.884"/>
   <path class="fil0" d="m43.639 28.024h43.264 1.477v1.477 26.494 1.4724l-1.477-0.0013-9.1238-0.0054h-0.5065l-0.3936-0.3056-34.14-26.488-3.4058-2.6425h4.3059zm41.787 2.954h-37.481l30.341 23.541 7.1402 0.0042v-23.545z"/>
   <path class="fil0" d="m104.67 43.79 17.953-18.836 0.4371-0.458 0.6363 0.0025 10.486 0.0481 0.6397 0.0034 0.4333 0.4638 18.651 19.965 0.3981 0.4266v0.5773 12.361 1.477h-1.477-24.134-0.3977l-0.3525-0.2077-24.554-14.48 1.2799-1.3431zm19.651-16.346-16.236 17.035 21.007 12.389h22.259v-10.306l-17.819-19.075-9.2105-0.0423z"/>
   <line class="fil1 str0" x1="37.164" x2="166.66" y1="94.32" y2="94.32"/>
   <polygon class="fil0" points="62.77 101.12 142.53 101.12 142.53 102.23 62.77 102.23"/>
   <polygon class="fil0" points="85.138 107.75 117.51 107.75 117.51 108.86 85.138 108.86"/>
   <polygon class="fil2" points="41.454 87.064 37.351 84.101 37.644 74.796 40.648 73.844 54.348 74.064 53.862 75.742 43.119 75.812 42.846 78.899 42.846 79.778 50.172 79.778 50.026 81.464 43.432 81.683 43.505 87.064"/>
   <path class="fil0" d="m41.21 87.403-4.1028-2.9628-0.1801-0.1298 0.0067-0.2219 0.2931-9.3046 0.0096-0.2964 0.2814-0.0896 3.0038-0.9524 0.0607-0.0189 0.072 9e-4 13.7 0.2198 0.5464 0.0088-0.1524 0.5241-0.4865 1.678-0.0867 0.2993-0.3123 0.0017-10.361 0.0678-0.2382 2.6899v0.4434h6.9078 0.4568l-0.0398 0.4546-0.1465 1.6851-0.0318 0.3688-0.3722 0.0122-6.1844 0.206 0.0678 4.9723 0.0059 0.4237h-0.4229-2.0514-0.1327l-0.1109-0.08zm-3.4351-3.51 3.8119 2.7527h1.4954l-0.0674-4.9569-0.0054-0.4082 0.4094-0.0138 6.2221-0.2072 0.0749-0.862h-6.8701-0.4187v-0.4187-0.8792-0.0167l0.0017-0.0193 0.2734-3.0871 0.0339-0.3785 0.3814-0.0025 10.43-0.0683 0.2478-0.8549-13.082-0.2097-2.6619 0.844-0.2767 8.7863z"/>
   <path class="fil2" d="m58.158 73.495-0.3663 12.308 0.7326 0.9524h2.7841l0.0732-3.2236 4.6157-0.0733 1.0257 2.3445 3.2237 0.0732v-1.8316l-4.2494-2.2712c5.7498-1.9605 7.2373-7.5241 2.5706-8.2822l-10.41 0.0033zm4.169 3.5548v2.841l3.6423 0.5464 2.4039-3.3145-6.0462-0.0729z"/>
   <path class="fil0" d="m58.563 73.912-0.3495 11.755 0.5153 0.6703h2.172l0.0641-2.8134 0.0092-0.4019 0.401-0.0067 4.6157-0.0733 0.278-0.0042 0.1114 0.2546 0.9189 2.1004 2.5291 0.0573v-1.1559l-4.027-2.1523-0.8478-0.453 0.9101-0.3106c2.1536-0.7343 3.675-1.9861 4.4587-3.2781 0.3689-0.6079 0.5711-1.2204 0.5937-1.7826 0.0213-0.5321-0.121-1.0228-0.4371-1.4193-0.3814-0.4776-1.0232-0.8348-1.9451-0.9897l-9.9707 0.0034zm-1.1881 11.88 0.3663-12.308 0.0122-0.4053 0.4048-4e-4 10.41-0.0033h0.0343l0.031 5e-3c1.1617 0.1884 1.9886 0.6585 2.4993 1.2987 0.4459 0.5589 0.6464 1.2396 0.6171 1.9718-0.028 0.703-0.2712 1.4524-0.7142 2.1821-0.7644 1.2601-2.1385 2.4801-4.0383 3.3032l3.4459 1.8416 0.2223 0.1189v0.2491 1.8316 0.4271l-0.427-0.0101-3.2237-0.0732-0.2671-0.0059-0.1071-0.2445-0.9144-2.0895-3.9366 0.0624-0.064 2.8213-0.0093 0.4103h-0.4077-2.7841-0.2043l-0.126-0.1637-0.7327-0.9525-0.0908-0.118 0.0042-0.1482zm5.3709-8.3204v2.059l3.0344 0.455 1.781-2.4558-4.8154-0.0582zm-0.8373 2.419v-2.841-0.422l0.4237 5e-3 6.0462 0.0729 0.8072 0.01-0.4735 0.6523-2.4039 3.3145-0.1491 0.206-0.2503-0.0377-3.6423-0.5464-0.358-0.0535v-0.3601z"/>
   <polygon class="fil2" points="74.862 76.848 77.646 73.698 87.024 73.991 87.69 75.948 79.405 75.749 79.185 79.266 84.094 79.413 84.167 80.878 78.306 83.808 86.878 84.541 86.878 86.812 74.716 86.812"/>
   <path class="fil0" d="m74.55 76.572 2.7841-3.1504 0.1298-0.1465 0.1938 0.0059 9.3779 0.293 0.2914 0.0092 0.0929 0.2738 0.6661 1.9573 0.1926 0.5656-0.5979-0.0147-7.8841-0.1892-0.1679 2.6861 4.4763 0.1335 0.3864 0.0117 0.0193 0.3856 0.0732 1.4653 0.0139 0.2709-0.2445 0.1218-4.5341 2.267 7.0929 0.6063 0.3843 0.033v0.3839 2.2712 0.4187h-0.4186-12.162-0.4228l0.0058-0.4237 0.1466-9.964 0.0025-0.1553 0.1021-0.116zm3.2789-2.4512-2.5517 2.8879-0.1381 9.385h11.32v-1.4682l-8.1876-0.7-1.4792-0.126 1.3272-0.664 5.6171-2.8084-0.0406-0.8092-4.5223-0.1348-0.4325-0.0126 0.0268-0.4291 0.2198-3.5167 0.0255-0.4019 0.4011 0.0096 7.6878 0.1846-0.3802-1.1182-8.8931-0.278z"/>
   <polygon class="fil2" points="93.017 75.729 92.723 87.044 92.706 87.887 105.24 87.887 105.09 85.738 97.186 85.665 96.858 82.278 102.03 82.132 102.03 80.42 96.931 80.165 100.61 77.032 105.64 76.668 105.67 74.702 93.652 74.556"/>
   <path class="fil0" d="m93.432 75.842-0.2914 11.212-0.0088 0.4145h11.657l-0.0895-1.3171-7.5162-0.0691-0.3755-0.0034-0.0364-0.3742-0.3278-3.3874-0.0427-0.4433 0.4467-0.013 4.7647-0.1344v-0.9093l-4.7003-0.2349-1.0508-0.0523 0.8005-0.682 3.6787-3.1324 0.1059-0.0896 0.1348-0.01 4.6459-0.3366 0.0213-1.1656-11.347-0.1377-0.4689 0.8658zm-1.1254 11.193 0.2939-11.315 3e-3 -0.1025 0.046-0.0859 0.6355-1.173 0.1206-0.2219 0.2525 0.0029 12.02 0.1457 0.4199 0.0054-8e-3 0.4183-0.0364 1.9668-0.0067 0.3831-0.381 0.0272-4.8911 0.3546-2.7724 2.3608 4.048 0.2022 0.399 0.0201v0.3969 1.7119 0.4056l-0.4074 0.0114-4.7249 0.1331 0.2487 2.5693 7.5278 0.0695 0.3877 0.0037 0.026 0.3856 0.1457 2.149 0.0305 0.4463h-0.4475-12.53-0.4257l0.0088-0.4271 0.0175-0.8427v-0.0013z"/>
   <path class="fil2" d="m152.08 87.325s3.3701 0.2931 3.3701-0.1465 0.3664-8.9383 0.3664-8.9383l12.455 11.502 0.8791-14.506-4.6156-0.2198 0.5128 7.6195-9.4511-8.0591-2.6376-0.293-1.0989 1.9049 0.2198 11.136z"/>
   <path class="fil0" d="m152.49 86.945c0.7867 0.0766 2.5421 0.247 2.5421 0.2341 0-0.4367 0.3671-8.9358 0.368-8.9597l0.046-0.8896 0.654 0.6037 11.808 10.905 0.8004-13.205-3.7248-0.1775 0.4815 7.1527 0.0666 0.9889-0.7549-0.6439-9.3527-7.9754-2.2403-0.2487-0.9043 1.5666 0.2102 10.648zm3.3794 0.2341c0 0.8963-3.8144 0.5643-3.8248 0.5635l-0.3735-0.0323-0.0075-0.3763-0.2198-11.136-0.0021-0.1155 0.0578-0.1005 1.0989-1.9049 0.1374-0.2374 0.2696 0.0298 2.6375 0.293 0.1277 0.0143 0.098 0.0837 8.6963 7.4156-0.4463-6.631-0.0314-0.4668 0.468 0.0221 4.6157 0.2198 0.4233 0.0205-0.026 0.4212-0.8792 14.506-0.0531 0.88-0.6468-0.5974-11.794-10.891c-0.0933 2.1912-0.3261 7.6664-0.3261 8.0198z"/>
   <polygon class="fil2" points="130.76 74.87 134.35 74.87 134.5 84.395 141.83 84.761 141.68 73.991 145.93 73.991 145.49 87.032 130.32 86.886"/>
   <path class="fil0" d="m130.76 74.452h3.59 0.4107l0.0063 0.4137 0.1406 9.1321 6.4926 0.3245-0.1407-10.326-0.0055-0.4236h0.4225 4.2493 0.4317l-0.0147 0.4316-0.4396 13.041-0.0134 0.4082-0.4069-0.0042-15.166-0.1465-0.4291-0.0038 0.0155-0.4278 0.4395-12.016 0.0151-0.404h0.4019zm3.1793 0.8373h-2.7769l-0.4095 11.184 14.33 0.1386 0.4111-12.202h-3.3949l0.1407 10.346 0.0063 0.4442-0.443-0.0222-7.3264-0.3663-0.3911-0.0193-0.0063-0.3927-0.1402-9.1108z"/>
   <path class="fil2" d="m110.91 86.959h3.2969l0.7326-3.8098 3.8831-0.0733s3.883 5.6414 4.2493 5.6414h1.9782l0.4396-1.6118-4.5424-4.7622c3.3048-1.6173 5.4442-5.4199 1.392-7.6928l-9.964-0.6594-1.5386 2.1247 0.0733 10.843zm4.5612-9.9264-0.1457 2.8775 4.0794 0.3642 1.6755-2.149-0.8742-1.0198-4.735-0.0729z"/>
   <path class="fil0" d="m111.32 86.54h2.5379l0.6674-3.4698 0.064-0.3316 0.3396-0.0067 4.1057-0.0774 0.1273 0.1842c0.0104 0.0151 3.7721 5.4597 3.906 5.4597h1.66l0.2931-1.0747-4.3804-4.5927-0.3927-0.4119 0.512-0.2508c1.2543-0.6138 2.3281-1.5557 2.9126-2.5978 0.2495-0.445 0.4077-0.9072 0.4479-1.3652 0.039-0.4463-0.033-0.8938-0.2415-1.3196-0.2835-0.579-0.8193-1.1341-1.6675-1.6248l-9.6366-0.638-1.3243 1.8287 0.0695 10.288zm2.8829 0.8373h-3.2969-0.4141l-0.0029-0.417-0.0733-10.843-8e-4 -0.1374 0.0791-0.1096 1.5386-2.1247 0.1356-0.1867 0.2295 0.015 9.964 0.6594 0.0963 0.0067 0.0816 0.0456c1.0521 0.5904 1.724 1.2883 2.0887 2.0335 0.28 0.5723 0.378 1.1676 0.3261 1.7583-0.0507 0.579-0.2458 1.1551-0.5526 1.7018-0.5857 1.0438-1.5897 1.9933-2.7766 2.6736l4.1632 4.3645 0.162 0.1699-0.0624 0.2278-0.4396 1.6118-0.0841 0.309h-0.3182-1.9782c-0.535 0-3.7813-4.6496-4.4658-5.6389l-3.3199 0.0628-0.669 3.4778-0.0653 0.3399h-0.345zm1.6608-9.9217-0.1051 2.0749 3.4531 0.3081 1.3259-1.7006-0.5305-0.6188-4.1434-0.0636zm-0.9591 2.4345 0.1457-2.8774 0.0205-0.4032 0.4015 0.0059 4.735 0.0728 0.19 0.0029 0.1223 0.1428 0.8741 1.0198 0.2215 0.2588-0.2102 0.2692-1.6754 2.1489-0.139 0.1792-0.2257-0.0205-4.0794-0.3642-0.401-0.0356 0.0201-0.3994z"/>
   <polygon class="fil0" points="37.164 93.581 166.66 93.581 166.66 95.058 37.164 95.058"/>


</svg>
